<svg xmlns="http://www.w3.org/2000/svg" width="24" height="24" fill="none"><circle cx="12" cy="12" r="12" fill="url(#a)"/><path fill="#fff" d="M17.293 13.217 11.931 10l-5.362 3.217 1.172 1.955 4.19-2.514 4.19 2.514 1.172-1.955ZM11.76 17c-3.11 0-5.592 2.357-5.752 5.4.772.445 1.597.807 2.465 1.073a3.936 3.936 0 0 1-.073-.761c0-2.016 1.464-3.504 3.456-3.528 1.968.024 3.456 1.512 3.456 3.528 0 .296-.032.581-.093.851.83-.23 1.625-.548 2.373-.943v-5.356h-2.28v.912C14.328 17.408 13.08 17 11.76 17Z"/><defs><linearGradient id="a" x1="12" x2="39.292" y1="-15.17" y2="6.419" gradientUnits="userSpaceOnUse"><stop stop-color="#EBA864"/><stop offset=".491" stop-color="#E25412"/><stop offset="1" stop-color="#B22259"/></linearGradient></defs></svg>