<svg xmlns="http://www.w3.org/2000/svg" width="1872" height="1032" fill="none"><g clip-path="url(#a)"><path fill="#18181B" d="M0 0h1872v1032H0z"/><path fill="#0C4A6E" d="M0 0h1872v1032H0z" opacity=".15"/><g filter="url(#b)" opacity=".1"><path fill="#064E3B" d="M-115 388v702h1451c-9.76-64.46-206.05-158.708-341.603-180.375C858.84 887.958 470.063 799.667 401.2 650.708 346.11 531.542 34.113 425.917-115 388Z"/></g><g filter="url(#c)" style="mix-blend-mode:overlay"><circle cx="559.5" cy="947.5" r="632.5" fill="#14B8A6"/></g><g filter="url(#d)" style="mix-blend-mode:overlay"><circle cx="119.5" cy="695.5" r="632.5" fill="#34D399"/></g><g filter="url(#e)" style="mix-blend-mode:overlay"><circle cx="20.5" cy="250.5" r="382.5" fill="#22D3EE"/></g></g><defs><filter id="b" width="1851" height="1102" x="-315" y="188" color-interpolation-filters="sRGB" filterUnits="userSpaceOnUse"><feFlood flood-opacity="0" result="BackgroundImageFix"/><feBlend in="SourceGraphic" in2="BackgroundImageFix" result="shape"/><feGaussianBlur result="effect1_foregroundBlur_619_15498" stdDeviation="100"/></filter><filter id="c" width="1665" height="1665" x="-273" y="115" color-interpolation-filters="sRGB" filterUnits="userSpaceOnUse"><feFlood flood-opacity="0" result="BackgroundImageFix"/><feBlend in="SourceGraphic" in2="BackgroundImageFix" result="shape"/><feGaussianBlur result="effect1_foregroundBlur_619_15498" stdDeviation="100"/></filter><filter id="d" width="1665" height="1665" x="-713" y="-137" color-interpolation-filters="sRGB" filterUnits="userSpaceOnUse"><feFlood flood-opacity="0" result="BackgroundImageFix"/><feBlend in="SourceGraphic" in2="BackgroundImageFix" result="shape"/><feGaussianBlur result="effect1_foregroundBlur_619_15498" stdDeviation="100"/></filter><filter id="e" width="1165" height="1165" x="-562" y="-332" color-interpolation-filters="sRGB" filterUnits="userSpaceOnUse"><feFlood flood-opacity="0" result="BackgroundImageFix"/><feBlend in="SourceGraphic" in2="BackgroundImageFix" result="shape"/><feGaussianBlur result="effect1_foregroundBlur_619_15498" stdDeviation="100"/></filter><clipPath id="a"><path fill="#fff" d="M0 0h1872v1032H0z"/></clipPath></defs></svg>