<svg xmlns="http://www.w3.org/2000/svg" width="1872" height="1032" fill="none"><g clip-path="url(#a)"><path fill="#18181B" d="M0 0h1872v1032H0z"/><g filter="url(#b)"><path fill="#05799E" d="M861.269 785.92c-190.652 112.524-79.438 315.6 0 403.08 130.442 0 396.661-26.44 418.021-132.19 26.7-132.189 314.5-117.863 258.5-255.913s-229.2-70.327-129.57-258.517c99.62-188.191-461.653-203.168-461.653-94.421 0 108.746 153.013 197.307-85.298 337.961Z"/></g><path fill="#0C4A6E" d="M0 0h1872v1032H0z" opacity=".15"/><g filter="url(#c)"><path fill="#63F1F1" fill-opacity=".38" d="M1469 370.5 1934 41v937l-925.5 20 282-230L1469 370.5Z"/></g><g opacity=".1"><g filter="url(#d)"><path fill="#22D3EE" d="M1096.81 313.378 744.625 107.745 562.866 360.718l22.889 297.194 334.933 12.846 176.122-357.38Z"/><path stroke="#155EB5" stroke-width="100" d="M1096.81 313.378 744.625 107.745 562.866 360.718l22.889 297.194 334.933 12.846 176.122-357.38Z"/></g><g filter="url(#e)"><path fill="#0ACC86" d="M1537.52 332.501c214.02-12.704 132.39 311.021 64.82 474.472l10.97 7.877-317.82 647.14c-111.21-20.59-370.108-110.76-515.989-306.7-182.352-244.918 490.489-806.909 758.019-822.789Z"/><path stroke="#000" d="M1537.52 332.501c214.02-12.704 132.39 311.021 64.82 474.472l10.97 7.877-317.82 647.14c-111.21-20.59-370.108-110.76-515.989-306.7-182.352-244.918 490.489-806.909 758.019-822.789Z"/></g><g filter="url(#f)"><path fill="#46EFEF" d="M1162.66 842.032c55.28-113.956-195.694-663.933-328.093-924.677L982.976-215.51c52.564 103.645 196.224 339.232 350.334 452.421 192.64 141.486-239.74 747.564-170.65 605.12Z"/></g><g filter="url(#g)"><path fill="#3FF4DE" d="M950.648 1125.12c-57.035 110.23-381.291-168.262-536.289-321.288 96.666-134.54 305.844-421.049 369.23-490.761 79.233-87.14 167.434 258.827 227.891 382.915 60.45 124.088-185.018 64.701-227.571 150.49-42.553 85.789 238.031 140.857 166.739 278.644Z"/></g></g><g filter="url(#h)" opacity=".8"><path fill="#168A52" d="M1566.27 376.795c177.17-39.186 68.39 265.028-8.15 422.034l7.97 5.729-344.29 628.122c-88.54-4.31-289.211-52.65-383.527-211.53-117.896-198.61 506.547-795.373 727.997-844.355Z"/><path stroke="#000" d="M1566.27 376.795c177.17-39.186 68.39 265.028-8.15 422.034l7.97 5.729-344.29 628.122c-88.54-4.31-289.211-52.65-383.527-211.53-117.896-198.61 506.547-795.373 727.997-844.355Z"/></g></g><defs><filter id="b" width="1389" height="1409" x="456" y="79.999" color-interpolation-filters="sRGB" filterUnits="userSpaceOnUse"><feFlood flood-opacity="0" result="BackgroundImageFix"/><feBlend in="SourceGraphic" in2="BackgroundImageFix" result="shape"/><feGaussianBlur result="effect1_foregroundBlur_625_16061" stdDeviation="150"/></filter><filter id="c" width="1525.5" height="1557" x="708.5" y="-259" color-interpolation-filters="sRGB" filterUnits="userSpaceOnUse"><feFlood flood-opacity="0" result="BackgroundImageFix"/><feBlend in="SourceGraphic" in2="BackgroundImageFix" result="shape"/><feGaussianBlur result="effect1_foregroundBlur_625_16061" stdDeviation="150"/></filter><filter id="d" width="1250.64" height="1280.33" x="211.612" y="-258.368" color-interpolation-filters="sRGB" filterUnits="userSpaceOnUse"><feFlood flood-opacity="0" result="BackgroundImageFix"/><feBlend in="SourceGraphic" in2="BackgroundImageFix" result="shape"/><feGaussianBlur result="effect1_foregroundBlur_625_16061" stdDeviation="150"/></filter><filter id="e" width="1528.02" height="1730.92" x="448.096" y="31.638" color-interpolation-filters="sRGB" filterUnits="userSpaceOnUse"><feFlood flood-opacity="0" result="BackgroundImageFix"/><feBlend in="SourceGraphic" in2="BackgroundImageFix" result="shape"/><feGaussianBlur result="effect1_foregroundBlur_625_16061" stdDeviation="150"/></filter><filter id="f" width="1148.62" height="1679.06" x="534.567" y="-515.509" color-interpolation-filters="sRGB" filterUnits="userSpaceOnUse"><feFlood flood-opacity="0" result="BackgroundImageFix"/><feBlend in="SourceGraphic" in2="BackgroundImageFix" result="shape"/><feGaussianBlur result="effect1_foregroundBlur_625_16061" stdDeviation="150"/></filter><filter id="g" width="1206.64" height="1451.12" x="114.359" y="-.835" color-interpolation-filters="sRGB" filterUnits="userSpaceOnUse"><feFlood flood-opacity="0" result="BackgroundImageFix"/><feBlend in="SourceGraphic" in2="BackgroundImageFix" result="shape"/><feGaussianBlur result="effect1_foregroundBlur_625_16061" stdDeviation="150"/></filter><filter id="h" width="1439.39" height="1660.35" x="523.096" y="72.844" color-interpolation-filters="sRGB" filterUnits="userSpaceOnUse"><feFlood flood-opacity="0" result="BackgroundImageFix"/><feBlend in="SourceGraphic" in2="BackgroundImageFix" result="shape"/><feGaussianBlur result="effect1_foregroundBlur_625_16061" stdDeviation="150"/></filter><clipPath id="a"><path fill="#fff" d="M0 0h1872v1032H0z"/></clipPath></defs></svg>