<svg xmlns="http://www.w3.org/2000/svg" width="1872" height="1032" fill="none"><g clip-path="url(#a)"><path fill="#18181B" d="M0 0h1872v1032H0z"/><path fill="#0C0C13" d="M0 0h1872v1032H0z" opacity=".15"/><g opacity=".5"><path fill="url(#b)" fill-opacity=".15" d="M136.321-142.992-119.59 298.434h511.821l-255.91-441.426Z"/><path fill="url(#c)" fill-opacity=".15" d="m145.017 744.424-255.91-441.426h511.821L145.017 744.424Z"/><g filter="url(#d)" opacity=".2" style="mix-blend-mode:overlay"><ellipse cx="325.5" fill="#BFC8E8" rx="237.5" ry="87" transform="rotate(180 325.5 0)"/></g><g filter="url(#e)" opacity=".2"><ellipse cx="325.5" fill="#6B7F9F" rx="237.5" ry="87" transform="rotate(180 325.5 0)"/></g><path fill="#8390BE" fill-opacity=".05" d="M181.791-64.57-28.654 298.431h420.889l-210.444-363ZM400.966 302.995l-210.444-363h420.889l-210.445 363Z"/><path fill="#8390BE" fill-opacity=".08" d="M186.945 672.666-27.056 304.645h428.003L186.945 672.666Z"/><path fill="url(#f)" fill-opacity=".08" fill-rule="evenodd" d="M445.026 303h.394L208.995 711-27.43 303h428.396L212.552-22h420.889L445.026 303Z" clip-rule="evenodd"/><g filter="url(#g)" opacity=".1"><path fill="#D7EBEF" d="M339 534 167.527 237.75h342.946L339 534Z"/></g><g filter="url(#h)" opacity=".1"><ellipse cx="237.5" cy="87" fill="#00186D" rx="237.5" ry="87" transform="matrix(-1 0 0 1 378 -87)"/></g><g filter="url(#i)" opacity=".1"><ellipse cx="237.5" cy="87" fill="#fff" rx="237.5" ry="87" transform="matrix(-1 0 0 1 339 -100)"/></g><g filter="url(#j)"><path fill="#5E77B8" fill-opacity=".5" d="M153.398 566.5c76.4-94.8-3.5-137.167-53-146.5h-55.5c-38.5 0-185 126.5-198 146.5s4.5 118.5 47 125.5 164-7 259.5-125.5Z"/></g></g><g filter="url(#k)"><path fill="#8390BE" fill-opacity=".05" d="M918.5 906 450.413 99h936.177L918.5 906Z"/></g><g filter="url(#l)"><path fill="#8390BE" fill-opacity=".05" d="m1521.5 57-468.09 807h936.18L1521.5 57Z"/></g><g filter="url(#m)"><path fill="#8390BE" fill-opacity=".02" d="M946.5 104 478.413 911h936.177L946.5 104Z"/></g><g filter="url(#n)" style="mix-blend-mode:overlay"><path fill="#C2C4ED" d="m855 696 171.47-296.25H683.527L855 696Z"/></g><g filter="url(#o)"><path fill="#5E77B8" d="M1067.6 645c-76.398-94.8 3.5-137.167 53-146.5h55.5c38.5 0 185 126.5 198 146.5s-4.5 118.5-47 125.5-164-7-259.5-125.5Z"/></g><g filter="url(#p)"><path fill="#5E77B8" fill-opacity=".5" d="M433.602 691.5c-76.4-94.8 3.5-137.167 53-146.5h55.501c38.5 0 185 126.5 198 146.5s-4.5 118.5-47 125.5-164.001-7-259.501-125.5Z"/></g><g filter="url(#q)"><path fill="#5E77B8" fill-opacity=".3" d="M737.602 1017.5c-76.4-94.8 3.5-137.167 53-146.5h55.501c38.5 0 184.997 126.5 197.997 146.5s-4.5 118.5-46.997 125.5c-42.5 7-164.001-7-259.501-125.5Z"/></g><g filter="url(#r)"><path fill="#5E77B8" d="M974.602 555.5c-76.4-94.8 3.5-137.167 52.998-146.5h55.5c38.5 0 185 126.5 198 146.5s-4.5 118.5-47 125.5-164-7-259.498-125.5Z"/></g><g filter="url(#s)"><path fill="#8390BE" fill-opacity=".15" d="m1741.99 906 210.45 363h-420.89l210.44-363Z"/></g><g filter="url(#t)"><path fill="url(#u)" fill-opacity=".1" fill-rule="evenodd" d="m1922.99 1120-210.44-363-210.45 363h420.89Zm-214-366-210.44 363-177.37-305.941c-14.68-25.333 3.59-57.059 32.88-57.059h354.93Z" clip-rule="evenodd"/></g><g filter="url(#v)" style="mix-blend-mode:overlay"><path fill="#D8DFF7" d="m1704.99 803 210.45 363h-420.89l210.44-363Z"/></g><path stroke="#000" d="m1804.42 796.25-180 312"/><path fill="#8390BE" fill-opacity=".08" d="m1806.99 795 210.45 363h-420.89l210.44-363ZM1593.99 1158l210.45-363h-420.89l210.44 363Z"/><g filter="url(#w)"><path fill="url(#x)" fill-opacity=".4" d="m1593.99 1158 145-249-56-114h-299.44l210.44 363Z"/></g><g filter="url(#y)" style="mix-blend-mode:lighten"><path fill="#12182D" fill-opacity=".5" d="M0 0h1728v139H0z"/></g><g filter="url(#z)" style="mix-blend-mode:lighten"><path fill="#12182D" fill-opacity=".5" d="M0 556h1914v298H0z"/></g></g><defs><filter id="d" width="675" height="374" x="-12" y="-187" color-interpolation-filters="sRGB" filterUnits="userSpaceOnUse"><feFlood flood-opacity="0" result="BackgroundImageFix"/><feBlend in="SourceGraphic" in2="BackgroundImageFix" result="shape"/><feGaussianBlur result="effect1_foregroundBlur_620_15548" stdDeviation="50"/></filter><filter id="e" width="675" height="374" x="-12" y="-187" color-interpolation-filters="sRGB" filterUnits="userSpaceOnUse"><feFlood flood-opacity="0" result="BackgroundImageFix"/><feBlend in="SourceGraphic" in2="BackgroundImageFix" result="shape"/><feGaussianBlur result="effect1_foregroundBlur_620_15548" stdDeviation="50"/></filter><filter id="g" width="542.946" height="496.25" x="67.527" y="137.75" color-interpolation-filters="sRGB" filterUnits="userSpaceOnUse"><feFlood flood-opacity="0" result="BackgroundImageFix"/><feBlend in="SourceGraphic" in2="BackgroundImageFix" result="shape"/><feGaussianBlur result="effect1_foregroundBlur_620_15548" stdDeviation="50"/></filter><filter id="h" width="675" height="374" x="-197" y="-187" color-interpolation-filters="sRGB" filterUnits="userSpaceOnUse"><feFlood flood-opacity="0" result="BackgroundImageFix"/><feBlend in="SourceGraphic" in2="BackgroundImageFix" result="shape"/><feGaussianBlur result="effect1_foregroundBlur_620_15548" stdDeviation="50"/></filter><filter id="i" width="675" height="374" x="-236" y="-200" color-interpolation-filters="sRGB" filterUnits="userSpaceOnUse"><feFlood flood-opacity="0" result="BackgroundImageFix"/><feBlend in="SourceGraphic" in2="BackgroundImageFix" result="shape"/><feGaussianBlur result="effect1_foregroundBlur_620_15548" stdDeviation="50"/></filter><filter id="j" width="1142.31" height="1073.48" x="-557.313" y="20" color-interpolation-filters="sRGB" filterUnits="userSpaceOnUse"><feFlood flood-opacity="0" result="BackgroundImageFix"/><feBlend in="SourceGraphic" in2="BackgroundImageFix" result="shape"/><feGaussianBlur result="effect1_foregroundBlur_620_15548" stdDeviation="200"/></filter><filter id="k" width="1036.17" height="907" x="400.413" y="49" color-interpolation-filters="sRGB" filterUnits="userSpaceOnUse"><feFlood flood-opacity="0" result="BackgroundImageFix"/><feBlend in="SourceGraphic" in2="BackgroundImageFix" result="shape"/><feGaussianBlur result="effect1_foregroundBlur_620_15548" stdDeviation="25"/></filter><filter id="l" width="1036.17" height="907" x="1003.41" y="7" color-interpolation-filters="sRGB" filterUnits="userSpaceOnUse"><feFlood flood-opacity="0" result="BackgroundImageFix"/><feBlend in="SourceGraphic" in2="BackgroundImageFix" result="shape"/><feGaussianBlur result="effect1_foregroundBlur_620_15548" stdDeviation="25"/></filter><filter id="m" width="1036.17" height="907" x="428.413" y="54" color-interpolation-filters="sRGB" filterUnits="userSpaceOnUse"><feFlood flood-opacity="0" result="BackgroundImageFix"/><feBlend in="SourceGraphic" in2="BackgroundImageFix" result="shape"/><feGaussianBlur result="effect1_foregroundBlur_620_15548" stdDeviation="25"/></filter><filter id="n" width="542.946" height="496.25" x="583.527" y="299.75" color-interpolation-filters="sRGB" filterUnits="userSpaceOnUse"><feFlood flood-opacity="0" result="BackgroundImageFix"/><feBlend in="SourceGraphic" in2="BackgroundImageFix" result="shape"/><feGaussianBlur result="effect1_foregroundBlur_620_15548" stdDeviation="50"/></filter><filter id="o" width="1142.31" height="1073.48" x="636" y="98.5" color-interpolation-filters="sRGB" filterUnits="userSpaceOnUse"><feFlood flood-opacity="0" result="BackgroundImageFix"/><feBlend in="SourceGraphic" in2="BackgroundImageFix" result="shape"/><feGaussianBlur result="effect1_foregroundBlur_620_15548" stdDeviation="200"/></filter><filter id="p" width="1142.31" height="1073.48" x="2" y="145" color-interpolation-filters="sRGB" filterUnits="userSpaceOnUse"><feFlood flood-opacity="0" result="BackgroundImageFix"/><feBlend in="SourceGraphic" in2="BackgroundImageFix" result="shape"/><feGaussianBlur result="effect1_foregroundBlur_620_15548" stdDeviation="200"/></filter><filter id="q" width="1142.31" height="1073.48" x="306" y="471" color-interpolation-filters="sRGB" filterUnits="userSpaceOnUse"><feFlood flood-opacity="0" result="BackgroundImageFix"/><feBlend in="SourceGraphic" in2="BackgroundImageFix" result="shape"/><feGaussianBlur result="effect1_foregroundBlur_620_15548" stdDeviation="200"/></filter><filter id="r" width="1142.31" height="1073.48" x="543" y="9" color-interpolation-filters="sRGB" filterUnits="userSpaceOnUse"><feFlood flood-opacity="0" result="BackgroundImageFix"/><feBlend in="SourceGraphic" in2="BackgroundImageFix" result="shape"/><feGaussianBlur result="effect1_foregroundBlur_620_15548" stdDeviation="200"/></filter><filter id="s" width="460.888" height="403" x="1511.55" y="886" color-interpolation-filters="sRGB" filterUnits="userSpaceOnUse"><feFlood flood-opacity="0" result="BackgroundImageFix"/><feBlend in="SourceGraphic" in2="BackgroundImageFix" result="shape"/><feGaussianBlur result="effect1_foregroundBlur_620_15548" stdDeviation="10"/></filter><filter id="t" width="666.991" height="426" x="1286" y="724" color-interpolation-filters="sRGB" filterUnits="userSpaceOnUse"><feFlood flood-opacity="0" result="BackgroundImageFix"/><feBlend in="SourceGraphic" in2="BackgroundImageFix" result="shape"/><feGaussianBlur result="effect1_foregroundBlur_620_15548" stdDeviation="15"/></filter><filter id="v" width="620.888" height="563" x="1394.55" y="703" color-interpolation-filters="sRGB" filterUnits="userSpaceOnUse"><feFlood flood-opacity="0" result="BackgroundImageFix"/><feBlend in="SourceGraphic" in2="BackgroundImageFix" result="shape"/><feGaussianBlur result="effect1_foregroundBlur_620_15548" stdDeviation="50"/></filter><filter id="w" width="395.444" height="403" x="1363.55" y="775" color-interpolation-filters="sRGB" filterUnits="userSpaceOnUse"><feFlood flood-opacity="0" result="BackgroundImageFix"/><feBlend in="SourceGraphic" in2="BackgroundImageFix" result="shape"/><feGaussianBlur result="effect1_foregroundBlur_620_15548" stdDeviation="10"/></filter><filter id="y" width="1828" height="239" x="-50" y="-50" color-interpolation-filters="sRGB" filterUnits="userSpaceOnUse"><feFlood flood-opacity="0" result="BackgroundImageFix"/><feBlend in="SourceGraphic" in2="BackgroundImageFix" result="shape"/><feGaussianBlur result="effect1_foregroundBlur_620_15548" stdDeviation="25"/></filter><filter id="z" width="2014" height="398" x="-50" y="506" color-interpolation-filters="sRGB" filterUnits="userSpaceOnUse"><feFlood flood-opacity="0" result="BackgroundImageFix"/><feBlend in="SourceGraphic" in2="BackgroundImageFix" result="shape"/><feGaussianBlur result="effect1_foregroundBlur_620_15548" stdDeviation="25"/></filter><linearGradient id="b" x1="136.321" x2="136.321" y1="-183.199" y2="445.576" gradientUnits="userSpaceOnUse"><stop stop-color="#8390BE"/><stop offset="1" stop-color="#8390BE" stop-opacity="0"/></linearGradient><linearGradient id="c" x1="145.017" x2="145.017" y1="784.631" y2="155.856" gradientUnits="userSpaceOnUse"><stop stop-color="#8390BE"/><stop offset="1" stop-color="#8390BE" stop-opacity="0"/></linearGradient><linearGradient id="f" x1="376.5" x2="465" y1="385" y2="-5.5" gradientUnits="userSpaceOnUse"><stop stop-color="#8390BE"/><stop offset="1" stop-color="#8390BE" stop-opacity="0"/></linearGradient><linearGradient id="u" x1="1316.42" x2="3310.1" y1="754" y2="1770.28" gradientUnits="userSpaceOnUse"><stop stop-color="#8390BE"/><stop offset="1" stop-color="#8390BE" stop-opacity="0"/></linearGradient><linearGradient id="x" x1="1716.99" x2="1394.49" y1="1146" y2="790.5" gradientUnits="userSpaceOnUse"><stop stop-color="#7688C9"/><stop offset="1" stop-color="#7688C9" stop-opacity="0"/></linearGradient><clipPath id="a"><path fill="#fff" d="M0 0h1872v1032H0z"/></clipPath></defs></svg>