<svg xmlns="http://www.w3.org/2000/svg" width="33" height="33" fill="none"><g filter="url(#a)"><path fill="url(#b)" fill-rule="evenodd" d="M32.788 16.836c0 6.144-3.463 11.48-8.544 14.16v-7.141h-3.04v1.216c-1.312-1.024-2.976-1.568-4.736-1.568-4.147 0-7.456 3.142-7.669 7.199-4.788-2.765-8.01-7.94-8.01-13.866 0-8.837 7.163-16 16-16 8.836 0 16 7.163 16 16Zm-8.942 1.623-7.15-4.29-7.15 4.29 1.564 2.606 5.586-3.352 5.586 3.352 1.564-2.606Z" clip-rule="evenodd"/><path fill="url(#c)" d="M21.08 32.254c.081-.36.124-.74.124-1.135 0-2.688-1.984-4.672-4.608-4.704-2.656.032-4.608 2.016-4.608 4.704 0 .35.033.69.097 1.015a16 16 0 0 0 4.703.702c1.487 0 2.926-.203 4.292-.582Z"/></g><g filter="url(#d)"><path fill="#fff" fill-rule="evenodd" d="m8.767 30.681.031.018c.213-4.056 3.522-7.199 7.67-7.199 1.76 0 3.423.544 4.735 1.568v-1.216h3.04v7.142l.17-.091a15.896 15.896 0 0 1-3.334 1.349c.081-.361.124-.74.124-1.136 0-2.688-1.984-4.672-4.608-4.704-2.656.032-4.608 2.016-4.608 4.704 0 .352.034.691.097 1.015a15.91 15.91 0 0 1-3.317-1.45Zm7.928-16.514 7.15 4.29-1.564 2.605-5.586-3.351-5.586 3.352-1.563-2.606 7.149-4.29Z" clip-rule="evenodd"/></g><defs><linearGradient id="b" x1="16.788" x2="53.178" y1="-19.391" y2="9.394" gradientUnits="userSpaceOnUse"><stop stop-color="#EBA864"/><stop offset=".491" stop-color="#E25412"/><stop offset="1" stop-color="#B22259"/></linearGradient><linearGradient id="c" x1="16.788" x2="53.178" y1="-19.391" y2="9.394" gradientUnits="userSpaceOnUse"><stop stop-color="#EBA864"/><stop offset=".491" stop-color="#E25412"/><stop offset="1" stop-color="#B22259"/></linearGradient><filter id="a" width="36.381" height="36.381" x="-1.403" y="-1.355" color-interpolation-filters="sRGB" filterUnits="userSpaceOnUse"><feFlood flood-opacity="0" result="BackgroundImageFix"/><feGaussianBlur in="BackgroundImageFix" stdDeviation="1.095"/><feComposite in2="SourceAlpha" operator="in" result="effect1_backgroundBlur_614_15862"/><feBlend in="SourceGraphic" in2="effect1_backgroundBlur_614_15862" result="shape"/></filter><filter id="d" width="20.028" height="22.466" x="6.576" y="11.976" color-interpolation-filters="sRGB" filterUnits="userSpaceOnUse"><feFlood flood-opacity="0" result="BackgroundImageFix"/><feGaussianBlur in="BackgroundImageFix" stdDeviation="1.095"/><feComposite in2="SourceAlpha" operator="in" result="effect1_backgroundBlur_614_15862"/><feBlend in="SourceGraphic" in2="effect1_backgroundBlur_614_15862" result="shape"/></filter></defs></svg>