<svg width="32" height="32" viewBox="0 0 32 32" fill="none" xmlns="http://www.w3.org/2000/svg">
<circle cx="16" cy="16" r="15.8476" fill="url(#paint0_radial_343_3455)"/>
<path d="M23.6226 16.0156C23.6226 11.7739 20.2628 8.45605 15.979 8.45605C11.6743 8.45605 8.33545 11.7739 8.33545 16.0156C8.33545 20.2574 11.6743 23.5752 15.979 23.5752C17.239 23.5752 18.4149 23.2812 19.4438 22.7773L20.8088 24.3942H23.3076L21.0397 21.7273C22.6357 20.3414 23.6226 18.3255 23.6226 16.0156ZM15.979 21.4333C12.9132 21.4333 10.6663 19.0395 10.6663 16.0156C10.6663 12.9918 12.9132 10.5979 15.979 10.5979C19.0449 10.5979 21.2917 12.9918 21.2917 16.0156C21.2917 17.6115 20.6618 19.0395 19.6118 20.0264L17.5539 17.5905H15.0971L17.9949 21.0554C17.3859 21.3073 16.714 21.4333 15.979 21.4333Z" fill="white"/>
<defs>
<radialGradient id="paint0_radial_343_3455" cx="0" cy="0" r="1" gradientUnits="userSpaceOnUse" gradientTransform="translate(16 0.152344) rotate(90) scale(25.6381)">
<stop stop-color="#592609"/>
<stop offset="1"/>
</radialGradient>
</defs>
</svg>
