<?xml version="1.0" standalone="no"?>
<!DOCTYPE svg PUBLIC "-//W3C//DTD SVG 20010904//EN"
 "http://www.w3.org/TR/2001/REC-SVG-20010904/DTD/svg10.dtd">
<svg version="1.0" xmlns="http://www.w3.org/2000/svg"
 width="700.000000pt" height="700.000000pt" viewBox="0 0 700.000000 700.000000"
 preserveAspectRatio="xMidYMid meet">
<metadata>
Created by potrace 1.14, written by Peter Selinger 2001-2017
</metadata>
<g transform="translate(0.000000,700.000000) scale(0.100000,-0.100000)"
fill="#000000" stroke="none">
<path d="M3388 5775 c-2 -1 -43 -5 -93 -9 -357 -26 -735 -149 -1039 -338 -583
-364 -960 -959 -1047 -1653 -22 -172 -16 -476 11 -635 5 -30 12 -71 15 -90 30
-184 118 -434 222 -630 52 -100 163 -274 200 -316 10 -10 31 -37 48 -59 45
-61 241 -255 325 -322 311 -248 669 -407 1065 -474 33 -5 70 -12 82 -14 51 -9
206 -18 308 -18 110 -1 323 11 335 18 3 2 24 6 46 9 171 22 425 96 598 175 38
17 72 31 76 31 5 0 99 -108 211 -240 166 -196 207 -240 228 -241 217 -4 721
-2 721 3 0 4 -131 161 -292 350 -160 189 -311 367 -336 396 l-45 52 100 99
c261 256 438 539 561 896 35 100 77 278 88 370 2 22 6 45 8 51 7 20 20 216 19
304 0 515 -154 980 -457 1385 -79 106 -226 263 -317 340 -70 59 -172 136 -234
177 -75 50 -285 168 -297 168 -4 0 -36 13 -70 29 -124 56 -353 125 -482 145
-21 4 -48 8 -60 11 -22 4 -86 13 -171 21 -50 6 -323 13 -327 9z m332 -659
c355 -51 659 -199 903 -439 252 -249 420 -598 465 -967 10 -76 9 -372 -1 -445
-47 -346 -201 -675 -428 -913 -61 -63 -71 -66 -98 -29 -11 16 -202 243 -280
333 -14 17 -89 105 -166 197 l-140 167 -373 0 -373 0 37 -40 c20 -22 44 -50
53 -62 8 -13 31 -40 50 -60 18 -21 41 -48 50 -60 8 -13 20 -28 26 -34 26 -28
73 -83 108 -126 21 -26 43 -53 50 -60 7 -7 66 -78 132 -158 66 -80 122 -147
125 -150 3 -3 60 -71 127 -152 l122 -146 -97 -31 c-53 -17 -110 -34 -127 -37
-16 -3 -49 -9 -71 -14 -150 -34 -432 -34 -626 -1 -109 19 -324 87 -353 112 -5
5 -14 9 -21 9 -7 0 -55 24 -107 54 -298 168 -522 416 -665 733 -39 86 -94 252
-105 319 -3 16 -10 52 -16 81 -29 144 -31 374 -6 568 10 71 53 238 83 320 40
108 118 269 154 320 165 229 299 363 480 479 95 60 236 126 342 161 89 29 126
38 236 60 14 3 50 8 80 11 30 4 57 8 59 10 6 5 323 -3 371 -10z"/>
</g>
</svg>
